<svg width="279" height="98" viewBox="0 0 279 98" fill="none" xmlns="http://www.w3.org/2000/svg">
<path d="M32.482 25.485L39.637 2.483H48.064L35.662 39H29.567L24.426 19.814L19.391 39H13.243L0.947 2.483H9.321L16.423 25.485C17.059 23.1883 18.6843 17.2347 21.299 7.624H27.659L32.482 25.485ZM66.2877 30.838L71.6407 34.495C69.3794 37.8517 65.6164 39.53 60.3517 39.53C56.7124 39.53 53.6384 38.3287 51.1297 35.926C48.6564 33.488 47.4197 30.361 47.4197 26.545C47.4197 22.729 48.6564 19.6373 51.1297 17.27C53.6384 14.9027 56.7124 13.719 60.3517 13.719C63.9557 13.719 66.9591 14.938 69.3617 17.376C71.7997 19.7787 73.0187 22.9057 73.0187 26.757C73.0187 27.4283 72.9834 28.188 72.9127 29.036H54.7867C54.9634 30.3787 55.6524 31.4033 56.8537 32.11C58.0904 32.8167 59.4331 33.17 60.8817 33.17C63.2844 33.17 65.0864 32.3927 66.2877 30.838ZM54.8927 24.425H65.5987C65.4221 23.047 64.8037 22.0047 63.7437 21.298C62.7191 20.556 61.6061 20.185 60.4047 20.185C59.2034 20.185 58.0551 20.5383 56.9597 21.245C55.8644 21.9517 55.1754 23.0117 54.8927 24.425ZM78.0434 0.786999H85.4104V39H78.0434V0.786999ZM94.6643 35.873C92.0143 33.435 90.6893 30.3257 90.6893 26.545C90.6893 22.7643 92.0143 19.6903 94.6643 17.323C97.3143 14.9203 100.477 13.719 104.151 13.719C106.342 13.719 108.374 14.1783 110.246 15.097C112.154 16.0157 113.709 17.3053 114.91 18.966L108.921 23.259C107.861 21.5983 106.271 20.768 104.151 20.768C102.526 20.768 101.095 21.3157 99.8583 22.411C98.6216 23.471 98.0033 24.849 98.0033 26.545C98.0033 28.2763 98.6216 29.7073 99.8583 30.838C101.095 31.9333 102.526 32.481 104.151 32.481C106.271 32.481 107.861 31.6507 108.921 29.99L114.91 34.23C113.744 35.8907 112.207 37.198 110.299 38.152C108.427 39.0707 106.377 39.53 104.151 39.53C100.477 39.53 97.3143 38.311 94.6643 35.873ZM131.05 32.216C132.64 32.216 133.965 31.7037 135.025 30.679C136.121 29.619 136.668 28.241 136.668 26.545C136.668 24.9197 136.121 23.577 135.025 22.517C133.93 21.457 132.605 20.927 131.05 20.927C129.496 20.927 128.171 21.457 127.075 22.517C126.015 23.577 125.485 24.9197 125.485 26.545C125.485 28.241 126.015 29.619 127.075 30.679C128.171 31.7037 129.496 32.216 131.05 32.216ZM140.166 35.873C137.693 38.2403 134.654 39.424 131.05 39.424C127.446 39.424 124.408 38.2403 121.934 35.873C119.461 33.4703 118.224 30.361 118.224 26.545C118.224 22.729 119.461 19.6373 121.934 17.27C124.408 14.9027 127.446 13.719 131.05 13.719C134.654 13.719 137.693 14.9027 140.166 17.27C142.675 19.6373 143.929 22.729 143.929 26.545C143.929 30.361 142.675 33.4703 140.166 35.873ZM176.558 20.874C175.286 20.874 174.262 21.298 173.484 22.146C172.707 22.9587 172.318 24.213 172.318 25.909V39H164.951V25.644C164.916 24.16 164.51 22.994 163.732 22.146C162.955 21.298 162.001 20.874 160.87 20.874C159.634 20.874 158.609 21.2803 157.796 22.093C156.984 22.8703 156.577 24.1423 156.577 25.909V39H149.21V14.249H156.577V17.853C157.143 16.581 158.008 15.5917 159.174 14.885C160.376 14.143 161.665 13.772 163.043 13.772C166.965 13.772 169.615 15.2207 170.993 18.118C172.795 15.1853 175.269 13.719 178.413 13.719C181.417 13.719 183.749 14.673 185.409 16.581C187.105 18.489 187.953 21.2803 187.953 24.955V39H180.639V25.803C180.639 24.2483 180.251 23.047 179.473 22.199C178.696 21.3157 177.724 20.874 176.558 20.874ZM211.831 30.838L217.184 34.495C214.922 37.8517 211.159 39.53 205.895 39.53C202.255 39.53 199.181 38.3287 196.673 35.926C194.199 33.488 192.963 30.361 192.963 26.545C192.963 22.729 194.199 19.6373 196.673 17.27C199.181 14.9027 202.255 13.719 205.895 13.719C209.499 13.719 212.502 14.938 214.905 17.376C217.343 19.7787 218.562 22.9057 218.562 26.757C218.562 27.4283 218.526 28.188 218.456 29.036H200.33C200.506 30.3787 201.195 31.4033 202.397 32.11C203.633 32.8167 204.976 33.17 206.425 33.17C208.827 33.17 210.629 32.3927 211.831 30.838ZM200.436 24.425H211.142C210.965 23.047 210.347 22.0047 209.287 21.298C208.262 20.556 207.149 20.185 205.948 20.185C204.746 20.185 203.598 20.5383 202.503 21.245C201.407 21.9517 200.718 23.0117 200.436 24.425ZM245.395 14.249H250.589V20.079H245.395V39H238.081V20.079H233.576V14.249H238.081V4.762H245.395V14.249ZM266.087 32.216C267.677 32.216 269.002 31.7037 270.062 30.679C271.157 29.619 271.705 28.241 271.705 26.545C271.705 24.9197 271.157 23.577 270.062 22.517C268.966 21.457 267.641 20.927 266.087 20.927C264.532 20.927 263.207 21.457 262.112 22.517C261.052 23.577 260.522 24.9197 260.522 26.545C260.522 28.241 261.052 29.619 262.112 30.679C263.207 31.7037 264.532 32.216 266.087 32.216ZM275.203 35.873C272.729 38.2403 269.691 39.424 266.087 39.424C262.483 39.424 259.444 38.2403 256.971 35.873C254.497 33.4703 253.261 30.361 253.261 26.545C253.261 22.729 254.497 19.6373 256.971 17.27C259.444 14.9027 262.483 13.719 266.087 13.719C269.691 13.719 272.729 14.9027 275.203 17.27C277.711 19.6373 278.966 22.729 278.966 26.545C278.966 30.361 277.711 33.4703 275.203 35.873Z" fill="#111719"/>
<path d="M4.645 97V65.995H24.04V71.8H11.26V78.865H21.385V84.625H11.26V97H4.645ZM36.1858 91.24C37.5358 91.24 38.6608 90.805 39.5608 89.935C40.4908 89.035 40.9558 87.865 40.9558 86.425C40.9558 85.045 40.4908 83.905 39.5608 83.005C38.6308 82.105 37.5058 81.655 36.1858 81.655C34.8658 81.655 33.7408 82.105 32.8108 83.005C31.9108 83.905 31.4608 85.045 31.4608 86.425C31.4608 87.865 31.9108 89.035 32.8108 89.935C33.7408 90.805 34.8658 91.24 36.1858 91.24ZM43.9258 94.345C41.8258 96.355 39.2458 97.36 36.1858 97.36C33.1258 97.36 30.5458 96.355 28.4458 94.345C26.3458 92.305 25.2958 89.665 25.2958 86.425C25.2958 83.185 26.3458 80.56 28.4458 78.55C30.5458 76.54 33.1258 75.535 36.1858 75.535C39.2458 75.535 41.8258 76.54 43.9258 78.55C46.0558 80.56 47.1208 83.185 47.1208 86.425C47.1208 89.665 46.0558 92.305 43.9258 94.345ZM61.2346 91.24C62.5846 91.24 63.7096 90.805 64.6096 89.935C65.5396 89.035 66.0046 87.865 66.0046 86.425C66.0046 85.045 65.5396 83.905 64.6096 83.005C63.6796 82.105 62.5546 81.655 61.2346 81.655C59.9146 81.655 58.7896 82.105 57.8596 83.005C56.9596 83.905 56.5096 85.045 56.5096 86.425C56.5096 87.865 56.9596 89.035 57.8596 89.935C58.7896 90.805 59.9146 91.24 61.2346 91.24ZM68.9746 94.345C66.8746 96.355 64.2946 97.36 61.2346 97.36C58.1746 97.36 55.5946 96.355 53.4946 94.345C51.3946 92.305 50.3446 89.665 50.3446 86.425C50.3446 83.185 51.3946 80.56 53.4946 78.55C55.5946 76.54 58.1746 75.535 61.2346 75.535C64.2946 75.535 66.8746 76.54 68.9746 78.55C71.1046 80.56 72.1696 83.185 72.1696 86.425C72.1696 89.665 71.1046 92.305 68.9746 94.345ZM91.6384 86.425C91.6384 84.895 91.1584 83.68 90.1984 82.78C89.2684 81.88 88.1284 81.43 86.7784 81.43C85.4284 81.43 84.2734 81.895 83.3134 82.825C82.3834 83.755 81.9184 84.955 81.9184 86.425C81.9184 87.955 82.3834 89.185 83.3134 90.115C84.2734 91.045 85.4284 91.51 86.7784 91.51C88.1284 91.51 89.2684 91.03 90.1984 90.07C91.1584 89.11 91.6384 87.895 91.6384 86.425ZM97.9834 97H91.7734V94.39C91.2634 95.35 90.4384 96.1 89.2984 96.64C88.1884 97.18 86.9584 97.45 85.6084 97.45C82.8184 97.45 80.4184 96.445 78.4084 94.435C76.4284 92.395 75.4384 89.77 75.4384 86.56C75.4384 83.29 76.4284 80.635 78.4084 78.595C80.4184 76.555 82.8184 75.535 85.6084 75.535C86.9584 75.535 88.1884 75.805 89.2984 76.345C90.4384 76.885 91.2634 77.62 91.7734 78.55V64.555H97.9834V97ZM122.084 65.995H128.744V97H122.084V84.535H111.059V97H104.489V65.995H111.059V78.64H122.084V65.995ZM148.821 87.1V75.985H155.076V97H148.821V94.12C148.281 95.14 147.501 95.95 146.481 96.55C145.461 97.15 144.426 97.45 143.376 97.45C140.916 97.45 138.906 96.685 137.346 95.155C135.816 93.625 135.051 91.42 135.051 88.54V75.985H141.306V87.19C141.306 88.69 141.696 89.77 142.476 90.43C143.256 91.06 144.111 91.375 145.041 91.375C146.121 91.375 147.021 91.03 147.741 90.34C148.461 89.65 148.821 88.57 148.821 87.1ZM167.198 86.425C167.198 87.895 167.663 89.11 168.593 90.07C169.553 91.03 170.708 91.51 172.058 91.51C173.408 91.51 174.548 91.045 175.478 90.115C176.438 89.185 176.918 87.955 176.918 86.425C176.918 84.955 176.438 83.755 175.478 82.825C174.548 81.895 173.408 81.43 172.058 81.43C170.708 81.43 169.553 81.88 168.593 82.78C167.663 83.68 167.198 84.895 167.198 86.425ZM167.063 97H160.853V64.555H167.063V78.55C167.573 77.62 168.383 76.885 169.493 76.345C170.633 75.805 171.878 75.535 173.228 75.535C176.018 75.535 178.403 76.555 180.383 78.595C182.393 80.635 183.398 83.29 183.398 86.56C183.398 89.77 182.393 92.395 180.383 94.435C178.403 96.445 176.018 97.45 173.228 97.45C171.878 97.45 170.633 97.18 169.493 96.64C168.383 96.1 167.573 95.35 167.063 94.39V97Z" fill="#FE724C"/>
</svg>
