<svg width="182" height="60" viewBox="0 0 182 60" fill="none" xmlns="http://www.w3.org/2000/svg">
<path d="M1.63047 17.32H17.3505V24.32H10.1505V27.28H17.2305V33.92H10.1505V44H1.63047V17.32ZM6.67047 40.8V31.08H14.2705V30.12H6.67047V21.48H14.6705V20.52H5.63047V40.8H6.67047ZM18.9602 30.68C18.9602 28.76 19.3202 26.9467 20.0402 25.24C20.7868 23.5333 21.7868 22.0533 23.0402 20.8C24.3202 19.52 25.8135 18.52 27.5202 17.8C29.2268 17.0533 31.0402 16.68 32.9602 16.68C34.8802 16.68 36.6935 17.0533 38.4002 17.8C40.1068 18.52 41.5868 19.52 42.8402 20.8C44.1202 22.0533 45.1202 23.5333 45.8402 25.24C46.5868 26.9467 46.9602 28.76 46.9602 30.68C46.9602 32.6 46.5868 34.4133 45.8402 36.12C45.1202 37.8267 44.1202 39.32 42.8402 40.6C41.5868 41.8533 40.1068 42.8533 38.4002 43.6C36.6935 44.32 34.8802 44.68 32.9602 44.68C31.0402 44.68 29.2268 44.32 27.5202 43.6C25.8135 42.8533 24.3202 41.8533 23.0402 40.6C21.7868 39.32 20.7868 37.8267 20.0402 36.12C19.3202 34.4133 18.9602 32.6 18.9602 30.68ZM22.7202 30.68C22.7202 32.0933 22.9868 33.4267 23.5202 34.68C24.0535 35.9067 24.7868 36.9867 25.7202 37.92C26.6535 38.8533 27.7335 39.5867 28.9602 40.12C30.2135 40.6533 31.5468 40.92 32.9602 40.92C34.3735 40.92 35.6935 40.6533 36.9202 40.12C38.1735 39.5867 39.2668 38.8533 40.2002 37.92C41.1335 36.9867 41.8668 35.9067 42.4002 34.68C42.9335 33.4267 43.2002 32.0933 43.2002 30.68C43.2002 29.2667 42.9335 27.9467 42.4002 26.72C41.8668 25.4667 41.1335 24.3733 40.2002 23.44C39.2668 22.5067 38.1735 21.7733 36.9202 21.24C35.6935 20.7067 34.3735 20.44 32.9602 20.44C31.5468 20.44 30.2135 20.7067 28.9602 21.24C27.7335 21.7733 26.6535 22.5067 25.7202 23.44C24.7868 24.3733 24.0535 25.4667 23.5202 26.72C22.9868 27.9467 22.7202 29.2667 22.7202 30.68ZM27.3602 30.68C27.3602 31.4533 27.5068 32.1867 27.8002 32.88C28.0935 33.5467 28.4935 34.1333 29.0002 34.64C29.5068 35.1467 30.0935 35.5467 30.7602 35.84C31.4535 36.1333 32.1868 36.28 32.9602 36.28C33.7335 36.28 34.4535 36.1333 35.1202 35.84C35.8135 35.5467 36.4135 35.1467 36.9202 34.64C37.4268 34.1333 37.8268 33.5467 38.1202 32.88C38.4135 32.1867 38.5602 31.4533 38.5602 30.68C38.5602 29.9067 38.4135 29.1867 38.1202 28.52C37.8268 27.8267 37.4268 27.2267 36.9202 26.72C36.4135 26.2133 35.8135 25.8133 35.1202 25.52C34.4535 25.2267 33.7335 25.08 32.9602 25.08C32.1868 25.08 31.4535 25.2267 30.7602 25.52C30.0935 25.8133 29.5068 26.2133 29.0002 26.72C28.4935 27.2267 28.0935 27.8267 27.8002 28.52C27.5068 29.1867 27.3602 29.9067 27.3602 30.68ZM32.9602 39.88C31.6802 39.88 30.4802 39.64 29.3602 39.16C28.2668 38.68 27.2935 38.0267 26.4402 37.2C25.6135 36.3467 24.9602 35.3733 24.4802 34.28C24.0002 33.16 23.7602 31.96 23.7602 30.68C23.7602 29.4 24.0002 28.2133 24.4802 27.12C24.9602 26 25.6135 25.0267 26.4402 24.2C27.2935 23.3467 28.2668 22.68 29.3602 22.2C30.4802 21.72 31.6802 21.48 32.9602 21.48C34.2402 21.48 35.4268 21.72 36.5202 22.2C37.6402 22.68 38.6135 23.3467 39.4402 24.2C40.2935 25.0267 40.9602 26 41.4402 27.12C41.9202 28.2133 42.1602 29.4 42.1602 30.68C42.1602 31.96 41.9202 33.16 41.4402 34.28C40.9602 35.3733 40.2935 36.3467 39.4402 37.2C38.6135 38.0267 37.6402 38.68 36.5202 39.16C35.4268 39.64 34.2402 39.88 32.9602 39.88ZM48.5695 30.68C48.5695 28.76 48.9295 26.9467 49.6495 25.24C50.3962 23.5333 51.3962 22.0533 52.6495 20.8C53.9295 19.52 55.4229 18.52 57.1295 17.8C58.8362 17.0533 60.6495 16.68 62.5695 16.68C64.4895 16.68 66.3029 17.0533 68.0095 17.8C69.7162 18.52 71.1962 19.52 72.4495 20.8C73.7295 22.0533 74.7295 23.5333 75.4495 25.24C76.1962 26.9467 76.5695 28.76 76.5695 30.68C76.5695 32.6 76.1962 34.4133 75.4495 36.12C74.7295 37.8267 73.7295 39.32 72.4495 40.6C71.1962 41.8533 69.7162 42.8533 68.0095 43.6C66.3029 44.32 64.4895 44.68 62.5695 44.68C60.6495 44.68 58.8362 44.32 57.1295 43.6C55.4229 42.8533 53.9295 41.8533 52.6495 40.6C51.3962 39.32 50.3962 37.8267 49.6495 36.12C48.9295 34.4133 48.5695 32.6 48.5695 30.68ZM52.3295 30.68C52.3295 32.0933 52.5962 33.4267 53.1295 34.68C53.6629 35.9067 54.3962 36.9867 55.3295 37.92C56.2629 38.8533 57.3429 39.5867 58.5695 40.12C59.8229 40.6533 61.1562 40.92 62.5695 40.92C63.9829 40.92 65.3029 40.6533 66.5295 40.12C67.7829 39.5867 68.8762 38.8533 69.8095 37.92C70.7429 36.9867 71.4762 35.9067 72.0095 34.68C72.5429 33.4267 72.8095 32.0933 72.8095 30.68C72.8095 29.2667 72.5429 27.9467 72.0095 26.72C71.4762 25.4667 70.7429 24.3733 69.8095 23.44C68.8762 22.5067 67.7829 21.7733 66.5295 21.24C65.3029 20.7067 63.9829 20.44 62.5695 20.44C61.1562 20.44 59.8229 20.7067 58.5695 21.24C57.3429 21.7733 56.2629 22.5067 55.3295 23.44C54.3962 24.3733 53.6629 25.4667 53.1295 26.72C52.5962 27.9467 52.3295 29.2667 52.3295 30.68ZM56.9695 30.68C56.9695 31.4533 57.1162 32.1867 57.4095 32.88C57.7029 33.5467 58.1029 34.1333 58.6095 34.64C59.1162 35.1467 59.7029 35.5467 60.3695 35.84C61.0629 36.1333 61.7962 36.28 62.5695 36.28C63.3429 36.28 64.0629 36.1333 64.7295 35.84C65.4229 35.5467 66.0229 35.1467 66.5295 34.64C67.0362 34.1333 67.4362 33.5467 67.7295 32.88C68.0229 32.1867 68.1695 31.4533 68.1695 30.68C68.1695 29.9067 68.0229 29.1867 67.7295 28.52C67.4362 27.8267 67.0362 27.2267 66.5295 26.72C66.0229 26.2133 65.4229 25.8133 64.7295 25.52C64.0629 25.2267 63.3429 25.08 62.5695 25.08C61.7962 25.08 61.0629 25.2267 60.3695 25.52C59.7029 25.8133 59.1162 26.2133 58.6095 26.72C58.1029 27.2267 57.7029 27.8267 57.4095 28.52C57.1162 29.1867 56.9695 29.9067 56.9695 30.68ZM62.5695 39.88C61.2895 39.88 60.0895 39.64 58.9695 39.16C57.8762 38.68 56.9029 38.0267 56.0495 37.2C55.2229 36.3467 54.5695 35.3733 54.0895 34.28C53.6095 33.16 53.3695 31.96 53.3695 30.68C53.3695 29.4 53.6095 28.2133 54.0895 27.12C54.5695 26 55.2229 25.0267 56.0495 24.2C56.9029 23.3467 57.8762 22.68 58.9695 22.2C60.0895 21.72 61.2895 21.48 62.5695 21.48C63.8495 21.48 65.0362 21.72 66.1295 22.2C67.2495 22.68 68.2229 23.3467 69.0495 24.2C69.9029 25.0267 70.5695 26 71.0495 27.12C71.5295 28.2133 71.7695 29.4 71.7695 30.68C71.7695 31.96 71.5295 33.16 71.0495 34.28C70.5695 35.3733 69.9029 36.3467 69.0495 37.2C68.2229 38.0267 67.2495 38.68 66.1295 39.16C65.0362 39.64 63.8495 39.88 62.5695 39.88ZM78.7789 44V17.32H86.1789C88.6856 17.32 90.9122 17.6 92.8589 18.16C94.8322 18.72 96.4856 19.56 97.8189 20.68C99.1789 21.8 100.206 23.2 100.899 24.88C101.619 26.5333 101.979 28.4533 101.979 30.64C101.979 32.8267 101.619 34.76 100.899 36.44C100.206 38.0933 99.1789 39.48 97.8189 40.6C96.4856 41.72 94.8322 42.5733 92.8589 43.16C90.9122 43.72 88.6856 44 86.1789 44H78.7789ZM83.8189 39.84V21.48H86.1789C89.5656 21.48 92.1922 22.2533 94.0589 23.8C95.9522 25.32 96.8989 27.6 96.8989 30.64C96.8989 33.68 95.9522 35.9733 94.0589 37.52C92.1922 39.0667 89.5656 39.84 86.1789 39.84H83.8189ZM82.7789 40.8H86.1789C90.0722 40.8 93.0056 39.92 94.9789 38.16C96.9789 36.3733 97.9789 33.8667 97.9789 30.64C97.9789 27.4133 96.9789 24.92 94.9789 23.16C93.0056 21.4 90.0722 20.52 86.1789 20.52H82.7789V40.8ZM87.2989 36.4C89.2989 36.4 90.8456 35.9333 91.9389 35C93.0322 34.04 93.5789 32.5867 93.5789 30.64C93.5789 28.6933 93.0322 27.2533 91.9389 26.32C90.8456 25.3867 89.2989 24.92 87.2989 24.92V36.4Z" fill="white"/>
<path opacity="0.6" d="M111.521 17.32H120.041V26.4H124.801V17.32H133.361V44H124.801V34.12H120.041V44H111.521V17.32ZM116.561 40.8V30.68H128.321V40.8H129.361V20.52H128.321V29.72H116.561V20.52H115.521V40.8H116.561ZM147.09 44.68C145.41 44.68 143.89 44.4667 142.53 44.04C141.17 43.6133 140.01 42.9733 139.05 42.12C138.09 41.2667 137.343 40.1867 136.81 38.88C136.303 37.5733 136.05 36.04 136.05 34.28V17.32H144.57V33.92C144.57 34.8533 144.756 35.5733 145.13 36.08C145.53 36.56 146.183 36.8 147.09 36.8C147.996 36.8 148.636 36.56 149.01 36.08C149.41 35.5733 149.61 34.8533 149.61 33.92V17.32H158.17V34.28C158.17 36.04 157.903 37.5733 157.37 38.88C156.863 40.1867 156.116 41.2667 155.13 42.12C154.17 42.9733 153.01 43.6133 151.65 44.04C150.29 44.4667 148.77 44.68 147.09 44.68ZM147.09 39.88C143.09 39.88 141.09 37.92 141.09 34V20.52H140.05V34C140.05 36.24 140.65 37.96 141.85 39.16C143.076 40.3333 144.823 40.92 147.09 40.92C149.356 40.92 151.103 40.3333 152.33 39.16C153.556 37.96 154.17 36.24 154.17 34V20.52H153.09V34C153.09 37.92 151.09 39.88 147.09 39.88ZM160.857 17.32H171.297C172.63 17.32 173.844 17.48 174.937 17.8C176.057 18.0933 177.004 18.5467 177.777 19.16C178.577 19.7467 179.19 20.4933 179.617 21.4C180.07 22.28 180.297 23.32 180.297 24.52C180.297 25.3733 180.19 26.1067 179.977 26.72C179.764 27.3067 179.537 27.8 179.297 28.2C179.004 28.68 178.67 29.08 178.297 29.4C178.884 29.7733 179.417 30.2533 179.897 30.84C180.297 31.3467 180.657 31.9867 180.977 32.76C181.324 33.5333 181.497 34.48 181.497 35.6C181.497 36.88 181.27 38.04 180.817 39.08C180.364 40.12 179.71 41.0133 178.857 41.76C178.03 42.48 177.004 43.04 175.777 43.44C174.577 43.8133 173.23 44 171.737 44H160.857V17.32ZM170.057 37.72C172.084 37.72 173.097 36.9467 173.097 35.4C173.097 33.8533 172.084 33.08 170.057 33.08H169.097V37.72H170.057ZM172.057 25.44C172.057 24.2133 171.39 23.6 170.057 23.6H169.097V27.28H170.057C171.39 27.28 172.057 26.6667 172.057 25.44ZM170.617 40.8C172.964 40.8 174.697 40.2933 175.817 39.28C176.937 38.2667 177.497 36.92 177.497 35.24C177.497 34.1467 177.257 33.28 176.777 32.64C176.324 31.9733 175.83 31.4533 175.297 31.08C174.63 30.6533 173.897 30.36 173.097 30.2C173.737 30.0133 174.31 29.72 174.817 29.32C175.27 28.9733 175.67 28.5067 176.017 27.92C176.39 27.3067 176.577 26.5333 176.577 25.6C176.577 23.92 176.044 22.6533 174.977 21.8C173.91 20.9467 172.457 20.52 170.617 20.52H164.857V40.8H170.617ZM165.897 39.84V30.68H170.577C171.404 30.68 172.164 30.7733 172.857 30.96C173.577 31.12 174.204 31.3867 174.737 31.76C175.27 32.1067 175.684 32.5733 175.977 33.16C176.297 33.7467 176.457 34.44 176.457 35.24C176.457 36.8667 175.91 38.04 174.817 38.76C173.75 39.48 172.337 39.84 170.577 39.84H165.897ZM165.897 29.72V21.48H170.617C172.35 21.48 173.59 21.8667 174.337 22.64C175.11 23.3867 175.497 24.3733 175.497 25.6C175.497 26.8267 175.11 27.8267 174.337 28.6C173.59 29.3467 172.35 29.72 170.617 29.72H165.897Z" fill="white"/>
</svg>
